# xmcd
#
# Track frame offsets: 
#        150
#        21139
#        37202
#        53462
#        63296
#        74595
#        90240
#        111644
#        129931
#        150044
#        173725
#        187076
#        206307
#
# Disc length: 3013 seconds
#
# Revision: 0
# Processed by: cddbd v1.5.2PL0 Copyright (c) Steve Scherf et al.
# Submitted via: ExactAudioCopy v1.0b1
#
DISCID=a60bc30d
DTITLE=Kwabena Nyama - Ghana: Palm wine music
DYEAR=1900
DGENRE=Blues
TTITLE0=In the car
TTITLE1=Sunday Monday
TTITLE2=Mabre me ho
TTITLE3=Frafra song
TTITLE4=Okunin nussu
TTITLE5=Momo Yenson Nyankopong
TTITLE6=Mahamadu
TTITLE7=Agoo
TTITLE8=Mame buabi menna
TTITLE9=Mao mose drabin onye
TTITLE10=Daakwafo maa
TTITLE11=Okunumun
TTITLE12=Owu yeya
EXTD=
EXTT0=
EXTT1=
EXTT2=
EXTT3=
EXTT4=
EXTT5=
EXTT6=
EXTT7=
EXTT8=
EXTT9=
EXTT10=
EXTT11=
EXTT12=
PLAYORDER=
